<svg width="124" height="124" viewBox="0 0 124 124" fill="none" xmlns="http://www.w3.org/2000/svg">
<ellipse cx="61.8099" cy="61.8099" rx="61.8099" ry="61.8099" fill="white"/>
<g clip-path="url(#clip0)">
<path d="M103.298 52.2141C102.475 31.8989 85.9277 16.0005 65.5757 16.0005C45.2461 16.0005 28.6159 32.1481 27.8398 52.2925C25.2341 57.3927 20.537 66.9663 20.3222 67.4049C19.1048 69.834 19.0592 72.6945 20.2166 75.2075C21.3698 77.7136 23.5683 79.5375 26.2479 80.2079L27.9679 80.6393C28.8024 84.4053 30.0567 90.0823 30.4497 91.8863C31.9306 98.7008 35.5099 101.608 42.4183 101.608C43.3751 101.608 44.349 101.551 45.2972 101.458V102.048V107.88H51.1293H85.3409H91.1728V102.048V90.0751C91.1728 86.1738 92.3774 82.3908 94.3936 79.956C102.696 69.9365 103.826 59.3603 103.298 52.2141ZM89.903 76.2354C86.5343 80.302 85.3409 85.7396 85.3409 90.0751V102.048H51.1294V94.4834C51.1294 94.4834 46.4107 95.7761 42.4185 95.7761C38.4289 95.7761 37.0649 94.862 36.1481 90.6445C35.5415 87.8596 32.8831 75.8568 32.8831 75.8568L27.6648 74.5511C26.7152 74.3133 25.9236 73.6583 25.5135 72.767C25.1035 71.8771 25.1191 70.8492 25.5577 69.9734C25.5577 69.9734 31.2644 58.3408 33.6434 53.7588C33.6463 36.1262 47.9415 21.8325 65.5759 21.8325C66.9083 21.8325 68.2126 21.942 69.5012 22.0988V47.2036C64.0109 48.9109 60.0243 54.0323 60.0243 60.0836C60.0243 65.3576 63.0583 69.9108 67.468 72.1292C66.5467 74.7619 64.8922 77.5113 62.1699 79.6229C60.0215 81.2843 57.1865 82.6 53.3651 83.1413C52.5819 82.0604 51.3189 81.3514 49.8822 81.3514H44.0447C41.6641 81.3514 39.7346 83.2809 39.7346 85.6644C39.7346 88.0435 41.6641 89.9728 44.0447 89.9728H49.8822C51.6167 89.9728 53.1016 88.9433 53.7852 87.4682C56.3863 87.114 58.7185 86.473 60.7361 85.5562C65.3622 83.4576 68.4206 80.0845 70.2546 76.6458C70.8295 75.5666 71.2796 74.4874 71.6441 73.4266C72.2549 73.5106 72.8756 73.5704 73.5107 73.5704C80.9587 73.5704 86.9973 67.532 86.9973 60.0838C86.9973 53.7691 82.6502 48.4826 76.7913 47.0159V23.8928C88.5221 28.3039 96.9811 39.3926 97.4751 52.5474C97.9946 59.3134 96.6776 68.0599 89.903 76.2354Z" fill="#4B4B4B"/>
</g>
<defs>
<clipPath id="clip0">
<rect width="91.8795" height="91.8795" fill="white" transform="translate(15.4526 16.0005)"/>
</clipPath>
</defs>
</svg>
