<svg width="131" height="131" viewBox="0 0 131 131" fill="none" xmlns="http://www.w3.org/2000/svg">
<ellipse cx="65.5" cy="65.4994" rx="65.5" ry="65.4994" fill="black"/>
<ellipse cx="65.5" cy="65.4997" rx="61.8099" ry="61.8093" fill="white"/>
<g clip-path="url(#clip0)">
<path d="M106.988 55.9037C106.165 35.5887 89.6177 19.6904 69.2656 19.6904C48.936 19.6904 32.3058 35.8379 31.5297 55.9822C28.9241 61.0823 24.2269 70.6558 24.0121 71.0944C22.7947 73.5234 22.7491 76.3839 23.9066 78.8969C25.0597 81.4029 27.2582 83.2269 29.9378 83.8973L31.6578 84.3287C32.4923 88.0946 33.7467 93.7716 34.1397 95.5756C35.6205 102.39 39.1999 105.297 46.1082 105.297C47.0651 105.297 48.039 105.24 48.9872 105.148V105.737V111.569H54.8192H89.0309H94.8627V105.737V93.7644C94.8627 89.8631 96.0674 86.0801 98.0835 83.6453C106.386 73.6259 107.516 63.0498 106.988 55.9037ZM93.5929 79.9248C90.2242 83.9913 89.0309 89.4289 89.0309 93.7644V105.737H54.8194V98.1726C54.8194 98.1726 50.1007 99.4653 46.1084 99.4653C42.1188 99.4653 40.7548 98.5512 39.838 94.3338C39.2314 91.5489 36.573 79.5462 36.573 79.5462L31.3548 78.2405C30.4051 78.0027 29.6135 77.3477 29.2035 76.4564C28.7934 75.5665 28.809 74.5386 29.2476 73.6629C29.2476 73.6629 34.9544 62.0303 37.3334 57.4484C37.3363 39.816 51.6314 25.5224 69.2658 25.5224C70.5982 25.5224 71.9025 25.6319 73.1912 25.7887V50.8933C67.7008 52.6006 63.7143 57.7219 63.7143 63.7732C63.7143 69.047 66.7483 73.6002 71.158 75.8186C70.2367 78.4513 68.5821 81.2007 65.8598 83.3123C63.7114 84.9736 60.8764 86.2894 57.055 86.8306C56.2719 85.7498 55.0089 85.0408 53.5722 85.0408H47.7346C45.354 85.0408 43.4245 86.9702 43.4245 89.3537C43.4245 91.7328 45.354 93.6621 47.7346 93.6621H53.5722C55.3066 93.6621 56.7916 92.6326 57.4751 91.1575C60.0763 90.8033 62.4084 90.1623 64.426 89.2455C69.0521 87.147 72.1105 83.7738 73.9445 80.3352C74.5195 79.256 74.9695 78.1768 75.334 77.116C75.9448 77.2 76.5656 77.2598 77.2007 77.2598C84.6486 77.2598 90.6872 71.2214 90.6872 63.7734C90.6872 57.4587 86.3402 52.1722 80.4812 50.7056V27.5827C92.212 31.9937 100.671 43.0823 101.165 56.237C101.685 63.003 100.368 71.7494 93.5929 79.9248Z" fill="#4B4B4B"/>
</g>
<defs>
<clipPath id="clip0">
<rect width="91.8795" height="91.8787" fill="white" transform="translate(19.1428 19.6904)"/>
</clipPath>
</defs>
</svg>
