<svg width="101" height="100" viewBox="0 0 101 100" fill="none" xmlns="http://www.w3.org/2000/svg">
<path d="M9.30664 8.85625V91.1439C9.30664 96.0328 13.274 100 18.1689 100H22.5879V0H18.1689C13.274 0 9.30664 3.96738 9.30664 8.85625Z" fill="white"/>
<path d="M83.2568 0H27.2754V100H83.2568C88.152 100 92.1191 96.0328 92.1191 91.1438V8.85625C92.1191 3.96738 88.152 0 83.2568 0ZM58.0615 70.9229H39.635L40.0135 66.0156C40.3553 64.151 41.582 62.5672 43.3033 61.7797L50.7129 58.7494C51.9459 58.1818 52.7393 56.9459 52.7393 55.5848V54.4953C52.7393 53.9795 52.6537 53.4668 52.4891 52.9785C52.4891 52.9785 47.826 46.759 47.826 41.0248C47.826 33.8562 52.4098 29.248 58.0615 29.248C63.7195 29.248 68.3033 33.8562 68.3033 41.0248C68.3033 46.759 63.6402 52.9785 63.6402 52.9785C63.4693 53.4668 63.39 53.9795 63.39 54.4953V55.5848C63.39 56.9459 64.1773 58.1818 65.4164 58.7494L72.8262 61.7799C74.5475 62.5672 75.7742 64.1512 76.116 66.0158L76.4941 70.9229H58.0615Z" fill="white"/>
</svg>
