<svg width="32" height="32" viewBox="0 0 32 32" fill="none" xmlns="http://www.w3.org/2000/svg">
<circle cx="16" cy="16" r="16" fill="white"/>
<g clip-path="url(#clip0)">
<path d="M26.7394 13.516C26.5263 8.25728 22.2428 4.14185 16.9746 4.14185C11.7121 4.14185 7.4072 8.3218 7.20629 13.5363C6.5318 14.8566 5.3159 17.3348 5.26029 17.4483C4.94516 18.0771 4.93336 18.8176 5.23298 19.4681C5.53148 20.1168 6.10058 20.5889 6.79421 20.7625L7.23946 20.8742C7.45546 21.849 7.78017 23.3185 7.8819 23.7855C8.26523 25.5495 9.19177 26.3021 10.9801 26.3021C11.2277 26.3021 11.4798 26.2873 11.7253 26.2634V26.416V27.9256H13.235H22.0909H23.6006V26.416V23.3167C23.6006 22.3068 23.9124 21.3275 24.4343 20.6973C26.5834 18.1036 26.8761 15.3659 26.7394 13.516ZM23.2719 19.7342C22.3999 20.7868 22.0909 22.1944 22.0909 23.3167V26.416H13.235V24.4578C13.235 24.4578 12.0135 24.7924 10.9801 24.7924C9.94737 24.7924 9.59428 24.5558 9.35696 23.4641C9.19995 22.7432 8.5118 19.6361 8.5118 19.6361L7.161 19.2982C6.91517 19.2366 6.71027 19.0671 6.60412 18.8363C6.49798 18.606 6.50202 18.3399 6.61555 18.1132C6.61555 18.1132 8.09279 15.102 8.70862 13.9159C8.70936 9.35156 12.4098 5.65151 16.9746 5.65151C17.3195 5.65151 17.6571 5.67985 17.9907 5.72045V12.219C16.5695 12.661 15.5375 13.9867 15.5375 15.5531C15.5375 16.9183 16.3229 18.097 17.4644 18.6712C17.2259 19.3527 16.7976 20.0644 16.0929 20.611C15.5368 21.0411 14.8029 21.3817 13.8137 21.5218C13.611 21.242 13.2841 21.0585 12.9122 21.0585H11.4011C10.7848 21.0585 10.2854 21.5579 10.2854 22.1749C10.2854 22.7908 10.7848 23.2902 11.4011 23.2902H12.9122C13.3611 23.2902 13.7455 23.0237 13.9225 22.6419C14.5958 22.5502 15.1995 22.3842 15.7218 22.1469C16.9193 21.6037 17.711 20.7305 18.1857 19.8404C18.3345 19.561 18.451 19.2817 18.5454 19.0071C18.7035 19.0288 18.8642 19.0443 19.0286 19.0443C20.9566 19.0443 22.5197 17.4812 22.5197 15.5532C22.5197 13.9186 21.3944 12.5501 19.8778 12.1705V6.18484C22.9144 7.32669 25.1041 10.1971 25.232 13.6023C25.3665 15.3538 25.0255 17.6179 23.2719 19.7342Z" fill="#4B4B4B"/>
</g>
<defs>
<clipPath id="clip0">
<rect width="23.7838" height="23.7838" fill="white" transform="translate(4 4.14185)"/>
</clipPath>
</defs>
</svg>
