<svg width="101" height="100" viewBox="0 0 101 100" fill="none" xmlns="http://www.w3.org/2000/svg">
<path d="M50.7714 23.0945C57.668 23.0945 63.2613 17.9246 63.2613 11.548C63.2613 5.17148 57.6683 0 50.7714 0C43.8746 0 38.2832 5.17129 38.2832 11.548C38.2832 17.9248 43.8748 23.0945 50.7714 23.0945Z" fill="white"/>
<path d="M50.7708 44.5708C59.3499 44.5708 68.1359 41.8241 66.7649 34.2196C66.2066 31.1314 63.4446 26.8023 61.3466 24.864C61.0749 24.6144 59.8451 24.5491 59.5109 24.7405C56.965 26.1925 53.9759 27.039 50.7706 27.039C47.5669 27.039 44.5778 26.1925 42.0321 24.7405C41.6977 24.5491 40.4676 24.6144 40.1962 24.864C38.0998 26.8023 35.3347 31.1314 34.7778 34.2196C33.4071 41.8243 42.1933 44.5708 50.7708 44.5708Z" fill="white"/>
<path d="M16.9054 78.5247C23.802 78.5247 29.3953 73.3548 29.3953 66.9782C29.3953 60.6001 23.8023 55.4302 16.9054 55.4302C10.0086 55.4302 4.41699 60.6001 4.41699 66.9782C4.4172 73.3548 10.0088 78.5247 16.9054 78.5247Z" fill="white"/>
<path d="M27.481 80.2958C27.2096 80.0432 25.9797 79.9809 25.6453 80.171C23.098 81.6229 20.1106 82.4682 16.9052 82.4682C13.7 82.4682 10.7124 81.6231 8.16654 80.171C7.83214 79.9811 6.6006 80.0432 6.32936 80.2958C4.23279 82.2327 1.46932 86.5618 0.912696 89.6501C-0.458476 97.2548 8.32771 100 16.9052 100C25.4844 100 34.2706 97.2548 32.8992 89.6501C32.3413 86.5618 29.5776 82.2327 27.481 80.2958Z" fill="white"/>
<path d="M84.6364 78.5247C91.533 78.5247 97.1246 73.3548 97.1246 66.9782C97.1246 60.6001 91.533 55.4302 84.6364 55.4302C77.7398 55.4302 72.1465 60.6001 72.1465 66.9782C72.1467 73.3548 77.7398 78.5247 84.6364 78.5247Z" fill="white"/>
<path d="M100.628 89.6501C100.071 86.5618 97.3079 82.2327 95.2116 80.2958C94.9399 80.0432 93.7086 79.9809 93.3742 80.171C90.8283 81.6229 87.8409 82.4682 84.6355 82.4682C81.4303 82.4682 78.4427 81.6231 75.8954 80.171C75.561 79.9811 74.3311 80.0432 74.0597 80.2958C71.9633 82.2327 69.2005 86.5618 68.6422 89.6501C67.2712 97.2548 76.0563 100 84.6355 100C93.2132 100 101.999 97.2548 100.628 89.6501Z" fill="white"/>
<path d="M67.7204 72.4555L52.8303 64.5078V48.6123C52.8303 47.5602 51.9087 46.708 50.7707 46.708C49.6342 46.708 48.7126 47.5602 48.7126 48.6123V64.5078L33.8226 72.4555C32.8382 72.9814 32.4991 74.1473 33.068 75.0574C33.6371 75.968 34.8976 76.2797 35.8822 75.7551L50.7705 67.8059L65.6605 75.7535C66.6451 76.2797 67.9044 75.9678 68.4732 75.0572C69.0423 74.1473 68.7048 72.9814 67.7204 72.4555Z" fill="white"/>
</svg>
