<svg width="24" height="24" viewBox="0 0 24 24" fill="none" xmlns="http://www.w3.org/2000/svg">
<g clip-path="url(#clip0)">
<path d="M23.4148 20.5928L19.686 16.8633L16.8633 19.686L20.592 23.4156C20.9693 23.792 21.4702 24 22.0042 24C22.5366 24 23.0376 23.792 23.4148 23.4156C23.7928 23.0384 24 22.5367 24 22.0035C24 21.4703 23.792 20.9692 23.4148 20.5928Z" fill="white"/>
<path d="M18.7212 16.9834L16.781 15.0425C16.784 15.0381 16.784 15.0337 16.7869 15.0307C18.032 13.4033 18.7161 11.3891 18.7146 9.35742C18.7168 6.85987 17.7442 4.50877 15.9739 2.74073C14.208 0.973406 11.8621 0 9.34547 0C6.85158 0 4.50637 0.973406 2.7405 2.74073C0.970216 4.50881 -0.00319057 6.85987 -0.000237441 9.35817C-0.00244057 11.8565 0.970966 14.2061 2.73975 15.9742C4.50637 17.7422 6.85378 18.7149 9.35794 18.7149H9.36675C11.3933 18.7149 13.4046 18.0308 15.0306 16.7872C15.0342 16.7842 15.0379 16.7827 15.0415 16.7813L16.9824 18.7222L18.7212 16.9834ZM13.8133 13.8135C12.6231 15.0015 11.0418 15.6577 9.35649 15.6607C7.67264 15.6577 6.09061 15.0015 4.90116 13.8135C3.71245 12.6248 3.0569 11.042 3.0547 9.35742C3.0569 7.67283 3.71241 6.0908 4.90041 4.90134C6.08986 3.71334 7.67189 3.05855 9.35649 3.05489C9.35724 3.05414 9.35794 3.05489 9.35794 3.05489C11.0418 3.05855 12.6238 3.71334 13.8133 4.90134C15.0013 6.09005 15.6568 7.67283 15.6597 9.35887C15.6568 11.0427 15.0012 12.6255 13.8133 13.8135Z" fill="white"/>
</g>
<defs>
<clipPath id="clip0">
<rect width="24" height="24" fill="white"/>
</clipPath>
</defs>
</svg>
