<svg width="512" height="512" viewBox="0 0 512 512" fill="none" xmlns="http://www.w3.org/2000/svg">
<path d="M469.672 213.675H145.324L275.68 84.727C292.303 68.289 292.447 41.474 276.009 24.861C259.571 8.23698 232.766 8.09398 216.142 24.533L12.566 225.901C4.52 233.863 0 244.691 0 256.003C0 267.315 4.52 278.133 12.566 286.096L216.142 487.464C232.766 503.902 259.57 503.768 276.009 487.134C292.447 470.521 292.303 443.717 275.68 427.279L145.324 298.322H469.671C493.045 298.322 511.999 279.377 511.999 256.003C512 232.62 493.045 213.675 469.672 213.675Z" fill="white"/>
</svg>
