<svg width="24" height="24" viewBox="0 0 24 24" fill="none" xmlns="http://www.w3.org/2000/svg">
<path d="M10.019 21.3562C10.0506 22.8076 11.2127 23.9686 12.6644 23.9993C12.6644 23.9993 12.724 23.9999 12.7241 23.9999C14.1804 23.9999 15.3926 22.814 15.4262 21.3564L15.428 21.28H10.0173L10.019 21.3562Z" fill="white"/>
<path d="M22.3045 16.9897C22.2718 16.5787 22.2366 16.151 22.1995 15.7825C22.181 15.598 22.1628 15.4289 22.1413 15.2573C22.1325 15.1894 22.1243 15.1261 22.1142 15.066C22.1041 14.9967 22.0926 14.9325 22.0765 14.8544C22.0542 14.7562 22.0276 14.6779 22.0008 14.6087C21.9489 14.4768 21.8955 14.3802 21.8452 14.2947C21.7961 14.2135 21.7485 14.142 21.6979 14.0719C21.6061 13.9431 21.5074 13.8217 21.4025 13.6993C21.2352 13.5028 21.0443 13.2949 20.819 13.0646C20.5155 12.7523 20.2062 12.4543 19.9686 12.2297L19.9471 12.2095L19.9148 11.8935C19.8299 11.0617 19.6985 9.77479 19.6087 8.92444C19.5145 8.02003 19.2516 7.17501 18.8272 6.41292C18.5243 5.86626 18.14 5.36606 17.6846 4.92586C17.03 4.29314 16.2495 3.79983 15.3645 3.45956C15.1552 3.37912 14.9238 3.30506 14.6593 3.23372C14.7665 2.95547 14.8207 2.67019 14.8207 2.38448C14.8207 2.06461 14.7579 1.75233 14.6338 1.45533C14.4523 1.02914 14.1538 0.666891 13.7708 0.407766C13.377 0.141 12.9169 0 12.437 0C12.1143 0 11.8018 0.0633281 11.508 0.187781C11.0823 0.367219 10.7197 0.665437 10.4593 1.05028C10.1926 1.44408 10.0517 1.90556 10.0517 2.38448C10.0517 2.67708 10.1044 2.96241 10.2083 3.23391C10.0699 3.27103 9.93211 3.31031 9.79682 3.35601C9.20925 3.55326 8.65415 3.82275 8.14682 4.15739C7.35098 4.68309 6.69834 5.34965 6.20714 6.13847C5.68725 6.9704 5.36939 7.90758 5.26237 8.92439C5.17748 9.74015 5.05331 10.9575 4.96842 11.79L4.92557 12.21C4.78673 12.3405 4.62234 12.4976 4.44553 12.6712C4.29778 12.816 4.14281 12.9714 3.99135 13.1288C3.87599 13.2476 3.76382 13.3684 3.65381 13.4889C3.57271 13.5793 3.49443 13.6688 3.4169 13.7602C3.31218 13.8876 3.2009 14.0272 3.09665 14.1854C3.0456 14.2633 2.99493 14.3456 2.94337 14.4477C2.91881 14.4979 2.89387 14.5532 2.86715 14.62C2.84212 14.6858 2.81681 14.7615 2.7959 14.8558C2.77996 14.9322 2.76853 14.9967 2.75849 15.0651C2.73848 15.1913 2.72128 15.3298 2.70426 15.4863C2.67304 15.758 2.64323 16.0814 2.61492 16.4182C2.52951 17.4157 2.45353 18.5545 2.45371 18.561C2.42803 18.93 2.55417 19.2836 2.80884 19.5566C3.06323 19.8283 3.40771 19.9778 3.77892 19.9778H21.0939C21.4648 19.9778 21.8094 19.8283 22.0641 19.5564C22.3185 19.2838 22.4445 18.9302 22.4193 18.5661C22.4191 18.5564 22.3687 17.7992 22.3045 16.9897ZM5.22848 17.0482C5.25942 16.6717 5.292 16.2909 5.32303 15.9821C5.3385 15.8288 5.35396 15.6933 5.36798 15.5905L5.37 15.5729C5.40173 15.5317 5.44186 15.4813 5.48953 15.4251C5.61318 15.2797 5.78057 15.1001 5.95593 14.92C6.22125 14.6472 6.50775 14.3706 6.72637 14.1646C6.83507 14.0618 7.04756 13.8645 7.08904 13.8274C7.33186 13.6076 7.48457 13.3055 7.51922 12.9747L7.56543 12.5125C7.64442 11.7399 7.80407 10.1775 7.90682 9.20109C7.96378 8.65594 8.11917 8.15184 8.36901 7.70278C8.54343 7.38778 8.76745 7.09626 9.03482 6.83662C9.43106 6.45305 9.91064 6.15169 10.4601 5.94061C11.0111 5.72916 11.6268 5.61745 12.2405 5.61745C12.2934 5.61745 12.345 5.6182 12.3974 5.61961C12.3974 5.61961 12.5807 5.61745 12.6323 5.61745C13.1858 5.61745 13.7228 5.70389 14.2285 5.87456C14.5987 5.99939 14.9462 6.16772 15.2613 6.37462C15.7363 6.68981 16.1231 7.08337 16.4107 7.54415C16.7187 8.0393 16.9003 8.5814 16.9659 9.20133C17.0365 9.8699 17.1341 10.8141 17.2134 11.5908L17.3535 12.9772C17.3881 13.3058 17.5409 13.6079 17.7885 13.8321C17.8134 13.8547 17.9298 13.9606 18.0927 14.114C18.2295 14.2424 18.4003 14.4048 18.5781 14.5794C18.7105 14.7105 18.8489 14.8482 18.9785 14.9834C19.0754 15.0847 19.1682 15.1839 19.2518 15.2767C19.3145 15.345 19.3703 15.4098 19.4179 15.4672C19.4507 15.5063 19.4796 15.5422 19.5027 15.5728C19.5121 15.6469 19.5238 15.7411 19.5355 15.8474C19.5608 16.0896 19.589 16.3953 19.6159 16.7136C19.6333 16.9148 19.6498 17.1204 19.6651 17.3203H5.20767L5.22848 17.0482ZM13.1181 1.92595C13.21 2.06316 13.2567 2.21747 13.2567 2.38448C13.2567 2.49694 13.2353 2.60433 13.1932 2.70347C13.1528 2.79862 13.0852 2.89017 12.9922 2.97586L12.9097 2.97112C12.8174 2.96569 12.7252 2.9602 12.6322 2.9602C12.5649 2.9602 12.4991 2.96091 12.438 2.96311C12.3707 2.96091 12.3048 2.9602 12.2405 2.9602C12.1337 2.9602 12.0278 2.96583 11.9219 2.97164L11.8715 2.97436C11.8217 2.92795 11.7846 2.88572 11.7559 2.84297C11.6629 2.70539 11.6158 2.55127 11.6158 2.38439C11.6158 2.27522 11.6372 2.16731 11.6792 2.06503C11.7411 1.91981 11.847 1.79119 11.9775 1.70325C12.1151 1.611 12.2698 1.56384 12.437 1.56333C12.5475 1.56333 12.6549 1.5848 12.7559 1.62736C12.9023 1.68956 13.0276 1.79292 13.1181 1.92595Z" fill="white"/>
</svg>
