<svg width="76" height="32" viewBox="0 0 76 32" fill="none" xmlns="http://www.w3.org/2000/svg">
<rect width="76" height="32" rx="4" fill="#1C81E6"/>
<path d="M29.024 9.884C28.424 11.588 27.38 13.292 26.288 14.372C26.54 14.732 26.948 15.548 27.08 15.896C27.32 15.632 27.572 15.332 27.824 15.032V21.032H29.264V12.812C29.708 12.008 30.104 11.156 30.416 10.316L29.024 9.884ZM37.628 13.148V11.792H32.972C33.2 11.3 33.392 10.808 33.56 10.304L32.18 9.956C31.64 11.672 30.692 13.4 29.636 14.48C29.936 14.708 30.5 15.212 30.728 15.476C31.268 14.852 31.82 14.036 32.3 13.148H32.756V21.044H34.22V18.38H37.484V17.06H34.22V15.704H37.328V14.408H34.22V13.148H37.628ZM47.42 13.664C47.132 14.636 46.736 15.524 46.268 16.328C46.064 15.368 45.896 14.24 45.788 13.04H49.496V11.624H48.248L48.824 11.012C48.404 10.616 47.528 10.064 46.868 9.728L46.004 10.58C46.496 10.88 47.096 11.264 47.54 11.624H45.704C45.68 11.036 45.668 10.448 45.68 9.848H44.18C44.18 10.448 44.204 11.036 44.228 11.624H39.332V15.128C39.332 16.688 39.248 18.776 38.336 20.216C38.66 20.384 39.296 20.912 39.548 21.188C40.532 19.724 40.784 17.384 40.832 15.632H42.392C42.356 17.144 42.308 17.72 42.188 17.888C42.092 18.008 41.996 18.032 41.828 18.032C41.636 18.032 41.228 18.02 40.796 17.984C41.012 18.344 41.168 18.896 41.192 19.316C41.744 19.328 42.26 19.328 42.572 19.28C42.932 19.22 43.172 19.112 43.4 18.8C43.676 18.452 43.748 17.384 43.784 14.864C43.784 14.696 43.796 14.324 43.796 14.324H40.832V13.04H44.312C44.468 14.84 44.732 16.52 45.14 17.876C44.444 18.656 43.616 19.316 42.692 19.82C42.992 20.096 43.508 20.684 43.724 20.996C44.468 20.54 45.14 20 45.752 19.364C46.28 20.348 46.94 20.948 47.78 20.948C48.896 20.948 49.376 20.42 49.604 18.2C49.22 18.044 48.716 17.732 48.392 17.396C48.332 18.896 48.188 19.496 47.9 19.496C47.516 19.496 47.132 18.992 46.784 18.128C47.648 16.964 48.356 15.572 48.848 14.012L47.42 13.664Z" fill="white"/>
</svg>
