<svg width="101" height="100" viewBox="0 0 101 100" fill="none" xmlns="http://www.w3.org/2000/svg">
<path d="M95.5716 91.6071C91.7813 76.6596 73.6966 71.676 73.6966 71.676C73.6966 71.676 76.3212 68.5266 82.446 64.8584C79.562 59.8871 74.31 56.701 72.546 55.7307C74.9782 54.3483 76.6751 48.8551 78.1063 46.2305C79.678 43.3557 76.8489 41.9153 75.2803 42.2053C75.2803 42.2053 75.2772 42.0496 75.2772 41.7719C86.9471 38.5369 94.3966 34.1608 93.9356 30.0196C93.4595 25.7836 84.8139 22.8387 72.1948 21.8989C71.9811 21.5783 71.7614 21.258 71.5233 20.9407C70.3331 14.5533 69.0147 7.51604 68.618 5.53538C67.6663 0.78362 60.8304 -1.87439 55.7491 1.55276C53.0848 3.35022 50.7046 3.47835 49.4411 3.47835C48.1776 3.47835 46.78 3.73479 43.1331 1.55276C37.8536 -1.60896 31.2159 0.78362 30.2638 5.53538C29.7938 7.86995 28.0513 17.2237 26.7421 24.261C26.4247 24.917 26.1593 25.5489 25.9425 26.1469C13.5278 29.4153 5.50184 33.9625 5.97782 38.2532C6.3745 41.8116 12.536 44.4574 21.969 45.7727C22.0302 45.9223 22.1003 46.0717 22.1856 46.2305C23.6048 48.8307 25.2802 54.2475 27.6757 55.691C25.9911 56.6127 20.6261 59.817 17.7056 64.8586C23.8304 68.5268 26.455 71.6762 26.455 71.6762C26.455 71.6762 8.37333 76.6598 4.57997 91.6073C3.41454 97.903 35.7876 99.9994 50.0759 99.9994C64.3641 99.9994 96.7372 97.903 95.5716 91.6071ZM61.1966 52.1569C52.9567 53.5547 53.2009 47.4785 50.1491 47.793C47.0942 47.4787 47.3354 53.5547 39.0956 52.1571C35.1405 51.4887 32.5098 48.9864 30.8376 46.5631C37.0022 46.8469 43.9602 46.6852 51.2813 46.0016C58.6268 45.3119 65.4934 44.1797 71.4841 42.7514C70.4372 45.3912 67.4831 51.0918 61.1966 52.1569Z" fill="white"/>
</svg>
