<svg width="100" height="100" viewBox="0 0 100 100" fill="none" xmlns="http://www.w3.org/2000/svg">
<g clip-path="url(#clip0)">
<path d="M99.8574 64.7588C99.8574 64.7571 99.8574 64.7553 99.8574 64.7537C99.8559 64.7436 99.8574 64.7367 99.8559 64.7264H99.8541C98.549 47.4119 94.5496 34.5696 88.9268 25.8893C86.1119 21.5492 82.8783 18.2496 79.3484 16.0246C75.8234 13.7979 71.9951 12.6656 68.1398 12.6692C65.2979 12.6674 62.8693 13.1826 60.8104 13.9604C57.7174 15.1264 55.467 16.85 53.708 18.1242C52.8301 18.7649 52.0727 19.2885 51.4523 19.6071C50.8252 19.9309 50.383 20.0444 50 20.0444C49.7406 20.0426 49.4678 19.9953 49.117 19.8647C48.5086 19.6426 47.6936 19.1358 46.7189 18.4326C45.2481 17.3869 43.4211 15.9397 41.0113 14.7518C38.6014 13.5619 35.5883 12.6639 31.86 12.669C28.0047 12.6655 24.1764 13.7992 20.6514 16.0244C15.3555 19.368 10.7307 25.1028 7.17324 33.1899C3.62149 41.2756 1.12168 51.742 0.145705 64.7266H0.144143C0.142385 64.7367 0.144143 64.7453 0.142385 64.7539C0.142385 64.7555 0.142385 64.7572 0.142385 64.759C0.047463 65.8164 2.05003e-06 66.8449 2.05003e-06 67.8432C-0.00175576 72.7373 1.12696 76.9164 3.25215 80.1754C5.37051 83.436 8.49883 85.7119 12.1611 86.7813C13.417 87.1508 14.7135 87.3303 16.0199 87.3303C19.8178 87.3252 23.6461 85.8424 27.2879 83.2748C30.9365 80.6989 34.4359 77.0147 37.6219 72.3899C39.1541 70.158 41.2352 67.5465 43.4787 65.5824C44.599 64.5996 45.7565 63.7828 46.8697 63.2336C47.985 62.6828 49.0357 62.4047 50 62.4065C50.9641 62.4047 52.015 62.6826 53.1301 63.2336C54.801 64.0537 56.5652 65.491 58.1666 67.1617C59.7732 68.8293 61.2271 70.7156 62.3779 72.3883C65.5639 77.0149 69.0635 80.6989 72.7104 83.2748C76.3539 85.8424 80.182 87.3252 83.9799 87.3303C85.2865 87.3303 86.583 87.1506 87.8371 86.7813C91.501 85.7119 94.6293 83.436 96.7461 80.1754C98.8713 76.9164 100 72.7373 100 67.8432C100 66.8467 99.9525 65.8164 99.8574 64.7588ZM93.1127 77.8045C91.5299 80.2178 89.3557 81.8024 86.6119 82.6192C85.7662 82.8682 84.8918 82.9903 83.9801 82.9918C81.3465 82.9969 78.3352 81.9344 75.2117 79.7295C72.0918 77.5315 68.9008 74.2168 65.9504 69.9293C64.2777 67.5041 62.0355 64.6535 59.3801 62.3219C58.0496 61.1559 56.6127 60.1154 55.052 59.3444C53.4943 58.5748 51.7947 58.0682 50 58.0682C48.2053 58.0682 46.5055 58.5748 44.9481 59.3444C42.6094 60.5051 40.5385 62.2557 38.7064 64.1522C36.8797 66.0518 35.3018 68.1108 34.0496 69.9293C31.0992 74.2168 27.9063 77.5315 24.7881 79.7295C21.6648 81.9342 18.6518 82.9969 16.0197 82.9918C15.1063 82.9901 14.2336 82.8682 13.3861 82.6192C10.6439 81.8024 8.46973 80.2178 6.88535 77.8045C5.31113 75.3897 4.33848 72.0832 4.33848 67.8432C4.33848 66.9739 4.3791 66.0637 4.46543 65.1164V65.1063L4.46719 65.0842C5.72285 48.2541 9.63242 36.0643 14.7115 28.2502C17.2484 24.3389 20.065 21.5223 22.9647 19.6953C25.8693 17.8686 28.8486 17.011 31.86 17.0076C34.1834 17.0094 36.0443 17.416 37.6559 18.0211C40.0691 18.9293 41.9299 20.3172 43.7414 21.6358C44.65 22.2934 45.5447 22.9356 46.5496 23.4592C47.5479 23.9778 48.7035 24.3828 50 24.3828C50.8592 24.3828 51.6711 24.2016 52.3996 23.9287C53.6809 23.444 54.7434 22.7153 55.8023 21.9629C57.3869 20.824 58.968 19.5918 60.8982 18.6463C62.8285 17.7024 65.0875 17.0127 68.1396 17.0076C71.151 17.011 74.1303 17.8686 77.0352 19.6953C81.3836 22.4307 85.5508 27.4164 88.8537 34.9356C92.1584 42.4481 94.5869 52.4619 95.5324 65.084V65.0942L95.5342 65.1162C95.6189 66.0619 95.6615 66.9721 95.6615 67.843C95.6598 72.0832 94.6887 75.3912 93.1127 77.8045Z" fill="white"/>
<path d="M31.4906 34.79H23.8848V41.7246H16.9502V49.3305H23.8848V56.2652H31.4906V49.3305H38.4252V41.7246H31.4906V34.79Z" fill="white"/>
<path d="M72.0039 32.6174C69.7908 32.6174 67.9961 34.4122 67.9961 36.6288C67.9961 38.8438 69.7908 40.6401 72.0039 40.6401C74.2207 40.6401 76.0152 38.8438 76.0152 36.6288C76.0152 34.4122 74.2205 32.6174 72.0039 32.6174Z" fill="white"/>
<path d="M72.0039 52.0012C69.7908 52.0012 67.9961 53.7959 67.9961 56.011C67.9961 58.2276 69.7908 60.0223 72.0039 60.0223C74.2207 60.0223 76.0152 58.2276 76.0152 56.011C76.0152 53.7959 74.2205 52.0012 72.0039 52.0012Z" fill="white"/>
<path d="M81.6959 42.311C79.4809 42.311 77.6846 44.1058 77.6846 46.3208C77.6846 48.5374 79.4809 50.3304 81.6959 50.3304C83.9127 50.3304 85.7072 48.5374 85.7072 46.3208C85.7072 44.1058 83.9125 42.311 81.6959 42.311Z" fill="white"/>
<path d="M62.316 42.311C60.0994 42.311 58.3047 44.1058 58.3047 46.3208C58.3047 48.5374 60.0994 50.3304 62.316 50.3304C64.5311 50.3304 66.3275 48.5374 66.3275 46.3208C66.3273 44.1058 64.5309 42.311 62.316 42.311Z" fill="white"/>
</g>
<defs>
<clipPath id="clip0">
<rect width="100" height="100" fill="white"/>
</clipPath>
</defs>
</svg>
