<svg width="26" height="27" viewBox="0 0 26 27" fill="none" xmlns="http://www.w3.org/2000/svg">
<path d="M8.17649 23.6378C17.9878 23.6378 23.3542 15.5092 23.3542 8.46004C23.3542 8.22919 23.3542 7.99935 23.3387 7.77053C24.3826 7.01536 25.2838 6.08043 26 5.00935C25.0265 5.44074 23.9936 5.72359 22.9362 5.84861C24.0495 5.18216 24.8833 4.13312 25.2813 2.89812C24.2343 3.51943 23.0886 3.95737 21.8941 4.19294C20.8855 3.12039 19.4768 2.51147 18.0046 2.51147C15.0754 2.51147 12.6652 4.92175 12.6652 7.85082C12.6652 8.25717 12.7116 8.66225 12.8034 9.05804C8.51657 8.84318 4.51694 6.81549 1.80959 3.4847C0.40173 5.90828 1.13019 9.0491 3.4611 10.6055C2.61229 10.5804 1.78171 10.3514 1.04 9.93787V10.0055C1.04071 12.5351 2.84004 14.7338 5.31959 15.2346C4.53431 15.4488 3.71018 15.48 2.91098 15.3261C3.60806 17.4937 5.61818 18.9879 7.89466 19.0306C6.0061 20.5148 3.67184 21.321 1.26984 21.3186C0.845406 21.3178 0.421383 21.2921 0 21.2416C2.43923 22.807 5.2782 23.6375 8.17649 23.6336" fill="#1DA1F2"/>
</svg>
